<?xml version="1.0" encoding="UTF-8"?>
<svg width="105px" height="64px" viewBox="0 0 105 64" version="1.1" xmlns="http://www.w3.org/2000/svg" xmlns:xlink="http://www.w3.org/1999/xlink">
    <!-- Generator: Sketch 61 (89581) - https://sketch.com -->
    <title>plus-more</title>
    <desc>Created with Sketch.</desc>
    <g id="plus-more" stroke="none" stroke-width="1" fill="none" fill-rule="evenodd">
        <polygon id="+" fill="#9B9B9B" fill-rule="nonzero" points="28.8882114 44 28.8882114 33.673913 39 33.673913 39 29.2766798 28.8882114 29.2766798 28.8882114 19 24.1626016 19 24.1626016 29.2766798 14 29.2766798 14 33.673913 24.1626016 33.673913 24.1626016 44"></polygon>
        <path d="M87.2651413,35 C88.3938986,35 89.2985644,34.6781609 89.9791386,34.0344828 C90.6597129,33.3908046 91,32.537931 91,31.4758621 C91,30.4137931 90.6597129,29.5689655 89.9791386,28.9413793 C89.2985644,28.3137931 88.3938986,28 87.2651413,28 C86.1031853,28 85.1819201,28.3137931 84.5013459,28.9413793 C83.8207716,29.5689655 83.4804845,30.4137931 83.4804845,31.4758621 C83.4804845,32.537931 83.8290713,33.3908046 84.526245,34.0344828 C85.2234186,34.6781609 86.136384,35 87.2651413,35 Z M72.5248991,35 C73.6536563,35 74.5583221,34.6781609 75.2388964,34.0344828 C75.9194706,33.3908046 76.2597577,32.537931 76.2597577,31.4758621 C76.2597577,30.4137931 75.9194706,29.5689655 75.2388964,28.9413793 C74.5583221,28.3137931 73.6536563,28 72.5248991,28 C71.362943,28 70.4416779,28.3137931 69.7611036,28.9413793 C69.0805294,29.5689655 68.7402423,30.4137931 68.7402423,31.4758621 C68.7402423,32.537931 69.0888291,33.3908046 69.7860027,34.0344828 C70.4831763,34.6781609 71.3961418,35 72.5248991,35 Z M57.7846568,35 C58.9134141,35 59.8180799,34.6781609 60.4986541,34.0344828 C61.1792284,33.3908046 61.5195155,32.537931 61.5195155,31.4758621 C61.5195155,30.4137931 61.1792284,29.5689655 60.4986541,28.9413793 C59.8180799,28.3137931 58.9134141,28 57.7846568,28 C56.6227008,28 55.7014356,28.3137931 55.0208614,28.9413793 C54.3402871,29.5689655 54,30.4137931 54,31.4758621 C54,32.537931 54.3485868,33.3908046 55.0457604,34.0344828 C55.7429341,34.6781609 56.6558995,35 57.7846568,35 Z" id="…" fill="#9B9B9B" fill-rule="nonzero"></path>
    </g>
</svg>