<?xml version="1.0" encoding="UTF-8"?>
<svg width="64px" height="64px" viewBox="0 0 64 64" version="1.1" xmlns="http://www.w3.org/2000/svg" xmlns:xlink="http://www.w3.org/1999/xlink">
    <!-- Generator: Sketch 61 (89581) - https://sketch.com -->
    <title>qq</title>
    <desc>Created with Sketch.</desc>
    <g id="qq" stroke="none" stroke-width="1" fill="none" fill-rule="evenodd">
        <g id="Tencent-QQ-Logo-" transform="translate(9.000000, 5.000000)" fill-rule="nonzero">
            <g id="Group">
                <path d="M22.8359257,53.5190281 C18.1132986,53.5190281 13.7792763,51.9411377 10.9888784,49.5877653 C9.56939168,50.0132033 7.7559029,50.69175 6.61167784,51.5318555 C5.6347687,52.2534846 5.75350904,52.9858843 5.93161954,53.2874606 C6.70882902,54.5907012 19.2197427,54.1221808 22.8359257,53.7128986 L22.8359257,53.5190281 L22.8359257,53.5190281 Z" id="Path" fill="#FAAB07"></path>
                <path d="M22.8359257,53.5190281 C27.5585527,53.5190281 31.892575,51.9411377 34.6829729,49.5877653 C36.1024596,50.0132033 37.9105511,50.69175 39.0601735,51.5318555 C40.0370826,52.2534846 39.9183423,52.9858843 39.7402318,53.2874606 C38.9630223,54.5907012 26.4521086,54.1221808 22.8359257,53.7128986 L22.8359257,53.5190281 L22.8359257,53.5190281 Z" id="Path" fill="#FAAB07"></path>
                <path d="M22.8683094,25.2785589 C30.6673906,25.224706 36.9174501,23.7222096 39.033187,23.1405981 C39.5405321,23.0005805 39.8103965,22.7582424 39.8103965,22.7582424 C39.8103965,22.6882336 39.8427802,21.4926989 39.8427802,20.8733903 C39.8427802,10.4851628 34.9258508,0.043082333 22.8413229,0.043082333 C10.7513978,0.043082333 5.83986565,10.4851628 5.83986565,20.8733903 C5.83986565,21.4926989 5.87224938,22.6882336 5.87224938,22.7582424 C5.87224938,22.7582424 6.09353819,22.9898099 6.4929375,23.1029011 C8.44675577,23.6468155 14.8155556,25.224706 22.8143365,25.2839442 L22.8683094,25.2839442 L22.8683094,25.2785589 Z" id="Path" fill="#000000"></path>
                <path d="M44.0580622,33.9327225 C43.5723063,32.3817585 42.9138371,30.5723005 42.2445734,28.8328513 C42.2445734,28.8328513 41.861366,28.7843837 41.6670636,28.8436219 C35.6706766,30.5830711 28.4005296,31.6870559 22.8629121,31.6224324 L22.8035419,31.6224324 C17.2983081,31.6870559 10.0767368,30.5938417 4.1019389,28.8705484 C3.87525281,28.8059249 3.42188061,28.8328513 3.42188061,28.8328513 C2.7526169,30.5723005 2.09414776,32.3817585 1.60839183,33.9327225 C-0.696250156,41.3374985 0.0485755923,44.3963441 0.620688123,44.4663529 C1.84047522,44.6117558 5.37030159,38.8925761 5.37030159,38.8925761 C5.37030159,44.7033058 10.6272601,53.626734 22.674007,53.7128986 C22.7279799,53.7128986 22.9384741,53.7128986 22.992447,53.7128986 C35.0338032,53.6321193 40.2961524,44.7086911 40.2961524,38.8925761 C40.2961524,38.8925761 43.8259788,44.6117558 45.0457659,44.4663529 C45.6178784,44.3963441 46.3627042,41.3374985 44.0580622,33.9327225" id="Path" fill="#000000"></path>
                <path d="M18.5342871,15.3911635 C16.8935115,15.4665575 15.4956139,13.6032466 15.40386,11.2337183 C15.3175034,8.86419001 16.5696743,6.88240269 18.2104498,6.80700861 C19.8512254,6.73161453 21.249123,8.59492543 21.3354796,10.969839 C21.4326308,13.3393673 20.1750627,15.3211547 18.5342871,15.3911635" id="Path" fill="#FFFFFF"></path>
                <path d="M30.2679913,11.2337183 C30.1816347,13.6032466 28.7783398,15.4665575 27.1375642,15.3911635 C25.4967887,15.3157694 24.2446178,13.3339821 24.3309744,10.9644537 C24.417331,8.59492543 25.8206259,6.73161453 27.4560042,6.80162332 C29.1021771,6.88240269 30.3543479,8.86419001 30.2679913,11.2337183" id="Path" fill="#FFFFFF"></path>
                <path d="M33.1825268,18.7408148 C32.7453465,17.7714624 28.3303649,16.694404 22.8683094,16.694404 L22.8089392,16.694404 C17.3468837,16.694404 12.9319021,17.7714624 12.4947218,18.7408148 C12.4731326,18.7838972 12.4623381,18.8269795 12.4623381,18.8808324 C12.4623381,18.9508412 12.4839272,19.0154647 12.5217082,19.0693176 C12.8887238,19.6078468 17.7894613,22.2627956 22.8089392,22.2627956 L22.8683094,22.2627956 C27.8877872,22.2627956 32.7831275,19.6078468 33.1555404,19.0693176 C33.1933214,19.0154647 33.2149105,18.9508412 33.2149105,18.8808324 C33.2149105,18.8269795 33.1987187,18.7785119 33.1825268,18.7408148" id="Path" fill="#FAAB07"></path>
                <path d="M20.5528728,11.2660301 C20.6284348,12.2030708 20.1156925,13.0324057 19.4032505,13.1239557 C18.6962057,13.2155056 18.0593257,12.5315736 17.9837637,11.5945329 C17.9082017,10.6574921 18.420944,9.82815721 19.1279888,9.73660725 C19.8404308,9.6450573 20.4773108,10.3343746 20.5528728,11.2660301" id="Path" fill="#000000"></path>
                <path d="M25.054211,11.578377 C25.1999378,11.319883 26.1876415,9.95740421 28.2278164,10.452851 C28.7621479,10.582098 29.0104232,10.7759685 29.064396,10.8513626 C29.1399581,10.9644537 29.1615472,11.1206272 29.0859852,11.3360389 C28.9294638,11.7614769 28.6110238,11.745321 28.4329133,11.6645417 C28.3195703,11.6106887 26.8946863,10.6628774 25.5831453,12.0792091 C25.4913914,12.1761444 25.3294727,12.2084561 25.1783487,12.095365 C25.0272246,11.9768886 24.9678544,11.745321 25.054211,11.578377" id="Path" fill="#000000"></path>
                <path d="M22.8683094,31.2777737 L22.8089392,31.2777737 C19.0416322,31.3208561 14.4755265,30.8254092 10.0551476,29.952992 C9.67733744,32.1394204 9.45065134,34.8913044 9.64495371,38.170947 C10.1415042,46.4589108 15.0746255,51.6664878 22.6848016,51.7418819 L22.992447,51.7418819 C30.6080204,51.6664878 35.5411417,46.4589108 36.0376922,38.170947 C36.2319945,34.8913044 36.0053084,32.1448057 35.6274983,29.952992 C31.2017221,30.8254092 26.6356164,31.3262414 22.8683094,31.2777737" id="Path" fill="#FFFFFF"></path>
                <path d="M12.1385008,30.5830711 L12.1385008,38.7364026 C12.1385008,38.7364026 15.8842187,39.4903435 19.6353339,38.9679702 L19.6353339,31.4501031 C17.2551298,31.3154708 14.691418,31.0192797 12.1385008,30.5830711" id="Path" fill="#EB1923"></path>
                <path d="M39.8049992,22.7582424 C39.8049992,22.7582424 32.5240577,25.0523766 22.8629121,25.1170001 L22.8035419,25.1170001 C13.1585882,25.0523766 5.88844124,22.7636277 5.8614548,22.7582424 L3.42188061,28.8328513 C9.52081608,30.6692358 17.0878139,31.8486147 22.8035419,31.7839912 L22.8629121,31.7839912 C28.5786401,31.8539999 36.1402406,30.6692358 42.2445734,28.8328513 L39.8049992,22.7582424 Z" id="Path" fill="#EB1923"></path>
            </g>
        </g>
    </g>
</svg>