<?xml version="1.0" encoding="UTF-8"?>
<svg width="64px" height="64px" viewBox="0 0 64 64" version="1.1" xmlns="http://www.w3.org/2000/svg" xmlns:xlink="http://www.w3.org/1999/xlink">
    <!-- Generator: Sketch 61 (89581) - https://sketch.com -->
    <title>wechat</title>
    <desc>Created with Sketch.</desc>
    <defs>
        <linearGradient x1="50%" y1="1.02746426e-11%" x2="50%" y2="100.000027%" id="linearGradient-1">
            <stop stop-color="#3AD41A" offset="0%"></stop>
            <stop stop-color="#31B716" offset="100%"></stop>
        </linearGradient>
    </defs>
    <g id="wechat" stroke="none" stroke-width="1" fill="none" fill-rule="evenodd">
        <g id="WeChat-01" transform="translate(5.000000, 5.000000)" fill-rule="nonzero">
            <rect id="XMLID_6_" fill="url(#linearGradient-1)" x="0.0743169399" y="0.0743169399" width="54.2513661" height="54.2513661"></rect>
            <path d="M44.5753005,40.7702732 C47.429071,38.7339891 49.2424044,35.7167213 49.2424044,32.3427322 C49.2424044,26.2338798 43.2970492,21.2695082 35.9693989,21.2695082 C28.6417486,21.2695082 22.6963934,26.2338798 22.6963934,32.3427322 C22.6963934,38.4515847 28.6417486,43.4159563 35.9693989,43.4159563 C37.5597814,43.4159563 39.075847,43.1781421 40.4878689,42.7619672 C40.7405464,42.6876503 41.0080874,42.717377 41.2310383,42.8511475 L44.1145355,44.515847 C44.7536612,44.8874317 45.1252459,44.6050273 44.9320219,43.8915847 L44.3077596,41.5134426 C44.2334426,41.2161749 44.3374863,40.9337705 44.5753005,40.7702732 Z M31.5401093,30.5888525 C30.5442623,30.5888525 29.7416393,29.7862295 29.7416393,28.7903825 C29.7416393,27.7945355 30.5442623,26.9919126 31.5401093,26.9919126 C32.5359563,26.9919126 33.3385792,27.7945355 33.3385792,28.7903825 C33.3385792,29.7862295 32.5359563,30.5888525 31.5401093,30.5888525 Z M40.339235,30.5888525 C39.343388,30.5888525 38.540765,29.7862295 38.540765,28.7903825 C38.540765,27.7945355 39.343388,26.9919126 40.339235,26.9919126 C41.335082,26.9919126 42.1377049,27.7945355 42.1377049,28.7903825 C42.1377049,29.7862295 41.335082,30.5888525 40.339235,30.5888525 Z" id="XMLID_16_" fill="#FFFFFF"></path>
            <path d="M21.2100546,9.0220765 C12.3960656,9.0220765 5.26163934,14.9674317 5.26163934,22.295082 C5.26163934,26.3230601 7.4168306,29.9348634 10.8205464,32.372459 C11.147541,32.5954098 11.2813115,32.9967213 11.1921311,33.3831694 L10.4489617,36.1774863 C10.2260109,37.0246995 10.6570492,37.351694 11.415082,36.9057923 L14.8336612,34.9140984 C15.1457923,34.7357377 15.5025137,34.6911475 15.8443716,34.7951913 C17.5239344,35.3005464 19.3372678,35.5680874 21.224918,35.5680874 C21.5073224,35.5680874 21.8045902,35.5680874 22.0869945,35.553224 C21.7302732,34.5127869 21.5519126,33.4128962 21.5519126,32.2832787 C21.5519126,25.6096175 28.0918033,20.1993443 36.1477596,20.1993443 C36.4301639,20.1993443 36.7125683,20.1993443 36.9801093,20.2142077 C35.7761749,13.8824044 29.1768306,9.0220765 21.2100546,9.0220765 Z M15.859235,20.1547541 C14.6850273,20.1547541 13.7337705,19.2034973 13.7337705,18.0292896 C13.7337705,16.855082 14.6850273,15.9038251 15.859235,15.9038251 C17.0334426,15.9038251 17.9846995,16.855082 17.9846995,18.0292896 C17.9846995,19.2034973 17.0334426,20.1547541 15.859235,20.1547541 Z M26.5162842,20.1547541 C25.3420765,20.1547541 24.3908197,19.2034973 24.3908197,18.0292896 C24.3908197,16.855082 25.3420765,15.9038251 26.5162842,15.9038251 C27.6904918,15.9038251 28.6417486,16.855082 28.6417486,18.0292896 C28.6268852,19.2034973 27.6756284,20.1547541 26.5162842,20.1547541 Z" id="XMLID_20_" fill="#FFFFFF"></path>
        </g>
    </g>
</svg>