<?xml version="1.0" encoding="UTF-8"?>
<svg width="149px" height="149px" viewBox="0 0 149 149" version="1.1" xmlns="http://www.w3.org/2000/svg" xmlns:xlink="http://www.w3.org/1999/xlink">
    <!-- Generator: Sketch 61 (89581) - https://sketch.com -->
    <title>Artboard@1x</title>
    <desc>Created with Sketch.</desc>
    <defs>
        <rect id="path-1" x="-14" y="37" width="204" height="31"></rect>
        <filter x="-6.6%" y="-43.5%" width="113.2%" height="187.1%" filterUnits="objectBoundingBox" id="filter-2">
            <feMorphology radius="1.5" operator="dilate" in="SourceAlpha" result="shadowSpreadOuter1"></feMorphology>
            <feOffset dx="0" dy="0" in="shadowSpreadOuter1" result="shadowOffsetOuter1"></feOffset>
            <feGaussianBlur stdDeviation="3" in="shadowOffsetOuter1" result="shadowBlurOuter1"></feGaussianBlur>
            <feColorMatrix values="0 0 0 0 0   0 0 0 0 0   0 0 0 0 0  0 0 0 0.5 0" type="matrix" in="shadowBlurOuter1"></feColorMatrix>
        </filter>
    </defs>
    <g id="Artboard" stroke="none" stroke-width="1" fill="none" fill-rule="evenodd">
        <g id="Bitmap-2"></g>
        <g id="Rectangle" transform="translate(88.000000, 52.500000) rotate(45.000000) translate(-88.000000, -52.500000) ">
            <use fill="black" fill-opacity="1" filter="url(#filter-2)" xlink:href="#path-1"></use>
            <use fill="#101520" fill-rule="evenodd" xlink:href="#path-1"></use>
        </g>
        <rect id="Rectangle" stroke-opacity="0.519012238" stroke="#FFFFFF" stroke-width="0.5" fill="#101520" transform="translate(88.000000, 52.500000) rotate(45.000000) translate(-88.000000, -52.500000) " x="-14" y="38.5" width="204" height="28"></rect>
        <path d="M39.065,63 L39.065,58.665 L41.885,58.665 L41.885,57.225 L39.065,57.225 L39.065,54.075 L42.305,54.075 L42.5,52.635 L37.115,52.635 L37.115,63 L39.065,63 Z M46.685,63.225 C47.745,63.225 48.5775,62.85 49.1825,62.1 C49.7875,61.35 50.09,60.325 50.09,59.025 C50.09,57.675 49.79,56.64 49.19,55.92 C48.59,55.2 47.755,54.84 46.685,54.84 C45.615,54.84 44.7775,55.21 44.1725,55.95 C43.5675,56.69 43.265,57.715 43.265,59.025 C43.265,60.355 43.5675,61.3875 44.1725,62.1225 C44.7775,62.8575 45.615,63.225 46.685,63.225 Z M46.685,61.8 C46.195,61.8 45.83,61.5825 45.59,61.1475 C45.35,60.7125 45.23,60.005 45.23,59.025 C45.23,58.055 45.35,57.3525 45.59,56.9175 C45.83,56.4825 46.195,56.265 46.685,56.265 C47.175,56.265 47.54,56.48 47.78,56.91 C48.02,57.34 48.14,58.045 48.14,59.025 C48.14,59.995 48.02,60.7 47.78,61.14 C47.54,61.58 47.175,61.8 46.685,61.8 Z M53.54,63 L53.54,58.68 C53.67,58.01 53.8575,57.51 54.1025,57.18 C54.3475,56.85 54.68,56.685 55.1,56.685 C55.31,56.685 55.52,56.715 55.73,56.775 L55.73,56.775 L56.045,54.96 C55.785,54.89 55.55,54.855 55.34,54.855 C54.91,54.855 54.535,54.9975 54.215,55.2825 C53.895,55.5675 53.64,55.985 53.45,56.535 L53.45,56.535 L53.3,55.065 L51.665,55.065 L51.665,63 L53.54,63 Z M58.925,63 L58.925,51.69 L57.05,51.885 L57.05,63 L58.925,63 Z M63.47,63 L60.92,58.56 L63.26,55.065 L61.37,55.065 L59,58.665 L61.4,63 L63.47,63 Z M69.56,63 L69.56,57.42 C69.75,57.05 69.95,56.765 70.16,56.565 C70.37,56.365 70.605,56.265 70.865,56.265 C71.335,56.265 71.57,56.65 71.57,57.42 L71.57,57.42 L71.57,63 L73.415,63 L73.415,57.42 C73.615,57.04 73.82,56.7525 74.03,56.5575 C74.24,56.3625 74.47,56.265 74.72,56.265 C75.19,56.265 75.425,56.65 75.425,57.42 L75.425,57.42 L75.425,63 L77.285,63 L77.285,57.18 C77.285,56.47 77.11,55.9025 76.76,55.4775 C76.41,55.0525 75.95,54.84 75.38,54.84 C74.93,54.84 74.5325,54.955 74.1875,55.185 C73.8425,55.415 73.53,55.745 73.25,56.175 C73.11,55.755 72.89,55.4275 72.59,55.1925 C72.29,54.9575 71.935,54.84 71.525,54.84 C70.705,54.84 70.02,55.255 69.47,56.085 L69.47,56.085 L69.335,55.065 L67.7,55.065 L67.7,63 L69.56,63 Z M82.25,63.225 C83.27,63.225 84.175,62.88 84.965,62.19 L84.965,62.19 L84.185,61.125 C83.865,61.355 83.565,61.525 83.285,61.635 C83.005,61.745 82.705,61.8 82.385,61.8 C81.885,61.8 81.495,61.635 81.215,61.305 C80.935,60.975 80.765,60.41 80.705,59.61 L80.705,59.61 L85.19,59.61 C85.22,59.19 85.235,58.935 85.235,58.845 C85.235,57.555 84.955,56.565 84.395,55.875 C83.835,55.185 83.055,54.84 82.055,54.84 C81.025,54.84 80.2225,55.2275 79.6475,56.0025 C79.0725,56.7775 78.785,57.805 78.785,59.085 C78.785,60.385 79.085,61.4 79.685,62.13 C80.285,62.86 81.14,63.225 82.25,63.225 Z M83.39,58.395 L80.705,58.395 C80.745,57.595 80.8775,57.0225 81.1025,56.6775 C81.3275,56.3325 81.65,56.16 82.07,56.16 C82.53,56.16 82.865,56.3375 83.075,56.6925 C83.285,57.0475 83.39,57.585 83.39,58.305 L83.39,58.305 L83.39,58.395 Z M93.035,63.225 C94.095,63.225 94.9275,62.85 95.5325,62.1 C96.1375,61.35 96.44,60.325 96.44,59.025 C96.44,57.675 96.14,56.64 95.54,55.92 C94.94,55.2 94.105,54.84 93.035,54.84 C91.965,54.84 91.1275,55.21 90.5225,55.95 C89.9175,56.69 89.615,57.715 89.615,59.025 C89.615,60.355 89.9175,61.3875 90.5225,62.1225 C91.1275,62.8575 91.965,63.225 93.035,63.225 Z M93.035,61.8 C92.545,61.8 92.18,61.5825 91.94,61.1475 C91.7,60.7125 91.58,60.005 91.58,59.025 C91.58,58.055 91.7,57.3525 91.94,56.9175 C92.18,56.4825 92.545,56.265 93.035,56.265 C93.525,56.265 93.89,56.48 94.13,56.91 C94.37,57.34 94.49,58.045 94.49,59.025 C94.49,59.995 94.37,60.7 94.13,61.14 C93.89,61.58 93.525,61.8 93.035,61.8 Z M99.89,63 L99.89,57.465 C100.11,57.075 100.335,56.78 100.565,56.58 C100.795,56.38 101.045,56.28 101.315,56.28 C101.575,56.28 101.7725,56.3675 101.9075,56.5425 C102.0425,56.7175 102.11,57.015 102.11,57.435 L102.11,57.435 L102.11,63 L103.985,63 L103.985,57.18 C103.985,56.46 103.805,55.89 103.445,55.47 C103.085,55.05 102.59,54.84 101.96,54.84 C101.51,54.84 101.1075,54.9475 100.7525,55.1625 C100.3975,55.3775 100.075,55.69 99.785,56.1 L99.785,56.1 L99.65,55.065 L98.015,55.065 L98.015,63 L99.89,63 Z M112.97,63.225 C113.55,63.225 114.12,63.135 114.68,62.955 C115.24,62.775 115.76,62.525 116.24,62.205 L116.24,62.205 L116.24,57.15 L112.82,57.15 L113.015,58.59 L114.365,58.59 L114.365,61.35 C113.935,61.61 113.46,61.74 112.94,61.74 C112.46,61.74 112.065,61.6175 111.755,61.3725 C111.445,61.1275 111.2125,60.7175 111.0575,60.1425 C110.9025,59.5675 110.825,58.79 110.825,57.81 C110.825,56.42 111.0425,55.4175 111.4775,54.8025 C111.9125,54.1875 112.49,53.88 113.21,53.88 C113.59,53.88 113.9275,53.94 114.2225,54.06 C114.5175,54.18 114.835,54.38 115.175,54.66 L115.175,54.66 L116.18,53.625 C115.75,53.225 115.2925,52.9225 114.8075,52.7175 C114.3225,52.5125 113.77,52.41 113.15,52.41 C112.33,52.41 111.5925,52.6125 110.9375,53.0175 C110.2825,53.4225 109.7625,54.03 109.3775,54.84 C108.9925,55.65 108.8,56.64 108.8,57.81 C108.8,61.42 110.19,63.225 112.97,63.225 Z M118.88,53.355 C119.22,53.355 119.4975,53.2475 119.7125,53.0325 C119.9275,52.8175 120.035,52.545 120.035,52.215 C120.035,51.885 119.9275,51.6125 119.7125,51.3975 C119.4975,51.1825 119.22,51.075 118.88,51.075 C118.54,51.075 118.2625,51.1825 118.0475,51.3975 C117.8325,51.6125 117.725,51.885 117.725,52.215 C117.725,52.545 117.8325,52.8175 118.0475,53.0325 C118.2625,53.2475 118.54,53.355 118.88,53.355 Z M119.81,63 L119.81,55.065 L117.935,55.065 L117.935,63 L119.81,63 Z M124.19,63.225 C124.52,63.225 124.8425,63.175 125.1575,63.075 C125.4725,62.975 125.76,62.825 126.02,62.625 L126.02,62.625 L125.36,61.455 C125.08,61.625 124.805,61.71 124.535,61.71 C124.285,61.71 124.1025,61.6375 123.9875,61.4925 C123.8725,61.3475 123.815,61.125 123.815,60.825 L123.815,60.825 L123.815,56.415 L125.285,56.415 L125.48,55.065 L123.815,55.065 L123.815,53.085 L121.94,53.31 L121.94,55.065 L120.875,55.065 L120.875,56.415 L121.94,56.415 L121.94,60.84 C121.94,61.59 122.1325,62.175 122.5175,62.595 C122.9025,63.015 123.46,63.225 124.19,63.225 Z M128.915,63 L128.915,58.35 L132.035,58.35 L132.035,63 L133.985,63 L133.985,52.635 L132.035,52.635 L132.035,56.805 L128.915,56.805 L128.915,52.635 L126.965,52.635 L126.965,63 L128.915,63 Z M137.975,63.225 C138.445,63.225 138.8525,63.12 139.1975,62.91 C139.5425,62.7 139.85,62.38 140.12,61.95 L140.12,61.95 L140.225,63 L141.845,63 L141.845,55.065 L139.97,55.065 L139.97,60.72 C139.58,61.44 139.125,61.8 138.605,61.8 C138.335,61.8 138.1375,61.715 138.0125,61.545 C137.8875,61.375 137.825,61.105 137.825,60.735 L137.825,60.735 L137.825,55.065 L135.95,55.065 L135.95,60.9 C135.95,61.61 136.1275,62.175 136.4825,62.595 C136.8375,63.015 137.335,63.225 137.975,63.225 Z M147.485,63.225 C148.055,63.225 148.5525,63.0525 148.9775,62.7075 C149.4025,62.3625 149.73,61.8725 149.96,61.2375 C150.19,60.6025 150.305,59.865 150.305,59.025 C150.305,57.675 150.075,56.64 149.615,55.92 C149.155,55.2 148.505,54.84 147.665,54.84 C147.265,54.84 146.895,54.9375 146.555,55.1325 C146.215,55.3275 145.93,55.595 145.7,55.935 L145.7,55.935 L145.7,51.69 L143.825,51.9 L143.825,63 L145.49,63 L145.595,62.22 C146.085,62.89 146.715,63.225 147.485,63.225 Z M146.975,61.815 C146.725,61.815 146.49,61.7375 146.27,61.5825 C146.05,61.4275 145.86,61.215 145.7,60.945 L145.7,60.945 L145.7,57.315 C146.09,56.615 146.55,56.265 147.08,56.265 C147.49,56.265 147.805,56.465 148.025,56.865 C148.245,57.265 148.355,57.985 148.355,59.025 C148.355,60.885 147.895,61.815 146.975,61.815 Z" id="ForkmeonGitHub" fill="#FFFFFF" fill-rule="nonzero" transform="translate(93.710000, 57.150000) rotate(45.000000) translate(-93.710000, -57.150000) "></path>
    </g>
</svg>